<?xml version="1.0" encoding="utf-8"?>
<svg version="1.1" xmlns="http://www.w3.org/2000/svg" x="0" y="0" width="16" height="16" viewBox="0 0 16 16" xml:space="preserve">
  <path fill-rule="evenodd" clip-rule="evenodd" fill="#222" d="M13.69 3.81L9.5 8l4.19 4.19c.19.19.31.46.31.75 0 .58-.47 1.06-1.06 1.06-.29 0-.56-.12-.75-.31L8 9.5l-4.19 4.19c-.19.19-.46.31-.75.31C2.47 14 2 13.53 2 12.94c0-.29.12-.56.31-.75L6.5 8 2.31 3.81C2.12 3.62 2 3.35 2 3.06 2 2.47 2.47 2 3.06 2c.29 0 .56.12.75.31L8 6.5l4.19-4.19c.19-.19.46-.31.75-.31.59 0 1.06.47 1.06 1.06 0 .29-.12.56-.31.75z"/>
</svg>