<svg xmlns="http://www.w3.org/2000/svg" width="240" height="16"><path fill="#585C64" d="M184 0c-4.4 0-8 3.6-8 8s3.6 8 8 8 8-3.6 8-8-3.6-8-8-8zm0 14c-3.3 0-6-2.7-6-6s2.7-6 6-6 6 2.7 6 6-2.7 6-6 6z"/><path fill="#585C64" d="M186.1 8c-.4.3-.9.6-1.1.6-.2.1-.2.2-.2.4v.3h-2v-.7c0-.5.1-.8.6-1.1l.7-.4c.3-.1.6-.3.6-.5 0-.3-.3-.4-.8-.4-.6 0-1.2.2-1.6.5l-.6-1.7c.3-.2 1-.6 2.5-.6s2.5.9 2.5 2c0 .9-.3 1.3-.6 1.6zm-2.3 3.9c-.8 0-1.3-.4-1.3-1.1s.5-1.1 1.3-1.1 1.3.4 1.3 1.1-.5 1.1-1.3 1.1zM120 0c-4.4 0-8 3.6-8 8s3.6 8 8 8 8-3.6 8-8-3.6-8-8-8zm4.5 6.4l-5.4 5.4c-.2.2-.4.3-.6.3s-.5-.1-.6-.3l-2.6-2.6c-.4-.4-.4-.9 0-1.3s.9-.4 1.3 0l2 2 4.7-4.7c.4-.4.9-.4 1.3 0 .3.3.3.9-.1 1.2zM200 0c-2.2 0-4 2.2-4 5s1.8 5 4 5 4-2.2 4-5-1.8-5-4-5zm-4.2 10c-2.1.1-3.8 1.8-3.8 4v2h16v-2c0-2.2-1.7-3.9-3.8-4-1.1 1.2-2.6 2-4.2 2s-3.1-.8-4.2-2zM208 2v2l8 4 8-4V2h-16zm0 4v8h16V6l-8 4-8-4zm-71.924-6c-4.172 0-7.554 1.03-7.554 2.3.29 2.466 1.848 9.573 2.094 10.946.302 1.721 3.335 2.754 5.457 2.754 2.123 0 5.158-1.033 5.458-2.754.143-.815 1.702-7.85 2.094-10.945C143.632 1.03 140.25 0 136.076 0zm4.703 9.487l-1.588-1.431 2.288-1.972-.7 3.403zm-3.085-1.446l-1.635 1.41-1.732-1.496 1.671-1.44 1.696 1.526zm-2.392 2.064l-1.633 1.408-1.732-1.496 1.632-1.407 1.733 1.495zm.757.653l1.733 1.496-1.62 1.417-1.743-1.506 1.63-1.407zm.758-.653l1.618-1.395 1.678 1.513-1.568 1.372-1.728-1.49zm1.632-2.717l-1.255-1.128c1.15-.06 2.194-.212 3.06-.425l-1.805 1.553zm-3.661-1.139l-1.223 1.054-1.718-1.482c.836.21 1.84.36 2.94.428h.001zm-1.977 1.706L131.32 9.24l-.641-3.122 2.133 1.837h-.001zm-1.099 3.174l1.2 1.036-.836.725-.364-1.76v-.001zm1.957 1.69l1.64 1.414a8.96 8.96 0 0 1-2.53-.643l.89-.77v-.001zm4.88.086l.805.692a8.917 8.917 0 0 1-2.298.612l1.493-1.304zm.752-.658l1.11-.973-.34 1.64-.77-.667zm-3.225-10.762c2.93 0 5.305.588 5.305 1.311 0 .726-2.375 1.31-5.305 1.31s-5.303-.588-5.303-1.31 2.374-1.311 5.303-1.311zM8 0C3.6 0 0 3.6 0 8s3.6 8 8 8 8-3.6 8-8-3.6-8-8-8zm0 2c3.32 0 6 2.68 6 6s-2.68 6-6 6-6-2.68-6-6 2.68-6 6-6zm0 2c-.56 0-1 .44-1 1s.44 1 1 1 1-.44 1-1-.44-1-1-1zM4.68 6a1 1 0 0 0-.38 1.68L6.12 9.5c-.04.16-.12.32-.12.5 0 1.1.9 2 2 2s2-.9 2-2-.9-2-2-2c-.18 0-.34.08-.5.12L5.68 6.3a1 1 0 0 0-.88-.32M11 6c-.56 0-1 .44-1 1s.44 1 1 1 1-.44 1-1-.44-1-1-1zM24 0c-4.42 0-8 3.58-8 8s3.58 8 8 8 8-3.58 8-8-3.58-8-8-8zm0 2c.66 0 1.28.18 1.88.38-.42.4-.9.76-.82 1.12.08.36 1.38.26 1.38 1 0 .54-.84.7-.26 1.32.7.7-1.28 1.96-1.32 2.88-.06 1.66 1.68 1.94 3.06 1.94.84 0 1.06.4 1 .88-1.08 1.54-2.92 2.5-4.94 2.5-.76 0-1.46-.18-2.12-.44.44-.88-.56-2.62-1.5-3.18-.46-.46-1.44-.28-2-.5-.18-.54-.36-1.08-.38-1.68.06-.1.16-.18.32-.18.38 0 .9.76 1.18.68.36-.08-1.48-2.62-.62-3.12.4-.24 1.2.78.94-.32-.24-1.02.72-.56 1.32-.82.52-.22.9-.82.26-1.18-.12-.06-.26-.2-.44-.38.9-.54 1.94-.9 3.06-.9zm4.62 2.18c.36.44.64.92.88 1.44v.06c-.08.14-.22.22-.44.44-.56.56-.64-.42-.88-.62-.26-.24-1.2.04-1.32-.26-.14-.36 1-.84 1.76-1.06zM38 0c-.56 0-1.08.2-1.44.56C36.2.92 36 1.44 36 2s.36.96.56 1.44c.06.12.06.32.06.56H32v12h4.62c0-.24-.02-.44-.06-.56-.2-.48-.56-.88-.56-1.44 0-.56.2-1.08.56-1.44.36-.36.88-.56 1.44-.56s1.08.2 1.44.56c.36.36.56.88.56 1.44s-.36.96-.56 1.44c-.06.12-.06.32-.06.56H44v-4.62c.24 0 .44.02.56.06.48.2.88.56 1.44.56.56 0 1.08-.2 1.44-.56.36-.36.56-.88.56-1.44s-.2-1.08-.56-1.44C47.08 8.2 46.56 8 46 8c-.56 0-.96.36-1.44.56-.12.06-.32.06-.56.06V4h-4.62c0-.24.02-.44.06-.56.2-.48.56-.88.56-1.44S39.8.92 39.44.56 38.56 0 38 0zM55.002.01l-.997 2.374c-.2.06-.38.16-.559.26l-2.374-.998-1.436 1.436.997 2.374c-.1.2-.18.36-.259.559L48 7.012v1.996l2.374.997c.08.2.16.36.26.559l-.998 2.374 1.436 1.436 2.374-.997c.18.08.36.18.559.259l.997 2.374h1.996l.997-2.374c.18-.08.38-.16.559-.26l2.374.998 1.436-1.436-.997-2.374c.08-.18.18-.38.259-.559L64 9.008V7.012l-2.374-.997c-.06-.18-.16-.38-.26-.559l.998-2.374-1.436-1.436-2.374.997c-.18-.08-.38-.18-.559-.259L56.998.01h-1.996zM56 4.998c1.656 0 2.993 1.336 2.993 2.992S57.656 10.983 56 10.983s-2.993-1.337-2.993-2.993S54.344 4.998 56 4.998zM74.994.003a4.988 4.988 0 0 0-4.986 4.985c0 .639.16 1.237.379 1.815l-5.804 5.744c-.777.778-.777 2.094 0 2.872.4.399.918.559 1.436.559a2.07 2.07 0 0 0 1.436-.559L73.2 9.615c.559.22 1.157.38 1.815.38A4.988 4.988 0 0 0 80 5.007c0-.319 0-.638-.06-.937l-1.934 1.935h-3.99v-3.99L75.952.083a5.03 5.03 0 0 0-.957-.08zM66.02 12.966c.559 0 .998.439.998.997s-.44.997-.998.997-.997-.438-.997-.997.439-.997.997-.997z"/><path fill="#585C64" d="M88-.01l-.38.18-7 2.94-.62.26v.62c0 3.32 1.34 6.24 2.94 8.38.8 1.06 1.66 1.94 2.5 2.56.84.62 1.66 1.06 2.56 1.06.92 0 1.72-.44 2.56-1.06.84-.62 1.7-1.5 2.5-2.56C94.66 10.23 96 7.31 96 3.99v-.62l-.62-.26-7-2.94L88-.01zm0 2.18v11.82c-.08 0-.66-.14-1.32-.62s-1.42-1.26-2.12-2.18c-1.28-1.7-2.28-4.06-2.44-6.56L88 2.19v-.02zM104 0c-4.4 0-8 3.6-8 8s3.6 8 8 8 8-3.6 8-8-3.6-8-8-8zm0 2c1.32 0 2.52.42 3.5 1.12l-8.38 8.38C98.42 10.52 98 9.32 98 8c0-3.32 2.68-6 6-6zm4.88 2.5c.7.98 1.12 2.18 1.12 3.5 0 3.32-2.68 6-6 6-1.32 0-2.52-.42-3.5-1.12l8.38-8.38z"/><path fill="#FDCD69" d="M159.473 10.443l-4.81-8.017c-.634-1.058-1.595-1.66-2.653-1.66s-2.018.602-2.653 1.652l-4.81 8.025c-.357.594-.536 1.212-.536 1.798 0 .464.113.92.341 1.319.521.911 1.53 1.44 2.775 1.44h9.766c1.245 0 2.255-.529 2.775-1.44.228-.4.342-.83.342-1.286.008-.603-.17-1.23-.537-1.831zm-7.463-5.656c.692 0 1.262.57 1.262 1.261s-.562 1.261-1.262 1.261c-.691 0-1.261-.57-1.261-1.261 0-.7.562-1.261 1.261-1.261zm1.376 6.884a2.332 2.332 0 0 1-1.685.75h-.122c-.415-.025-.757-.204-.96-.514-.253-.382-.293-.903-.098-1.48l.334-.994c.187-.553.008-.642-.09-.691l-.114-.017c-.203 0-.488.123-.578.171a.205.205 0 0 1-.252-.057.208.208 0 0 1 .008-.26c.025-.033.708-.806 1.807-.74.415.024.757.203.96.512.26.383.293.903.098 1.49l-.334.992c-.187.554-.008.643.09.692l.114.016c.203 0 .488-.122.578-.163.09-.048.187-.024.252.057.057.057.057.163-.008.236z"/><path fill="#585C64" d="M166.492.542l-.939 3.056-1.558 5.114-.06-.12-.18-.68H160V9.91h2.317l.76 2.317.938 2.937.939-2.996 1.558-4.994 1.558 4.994.819 2.676 1.059-2.557 1.178-2.936.26.56H176V7.912h-3.376l-.759-1.498-.999-1.938-.819 2.058-.938 2.377-1.678-5.314-.94-3.056zM227.327 2c-.8 0-1.475.535-1.75 1.27v.018l-1.539 4.674-.038.096V11.846a2.469 2.469 0 0 0 2.462 2.462h11.076A2.469 2.469 0 0 0 240 11.846V8.058l-.038-.096-1.597-4.693c-.26-.692-.922-1.269-1.75-1.269h-9.288zm0 1.23h9.288c.28 0 .487.17.597.462l1.538 4.462h-4.904c0 1.046-.8 1.846-1.846 1.846s-1.846-.8-1.846-1.846h-4.904l1.48-4.462c.095-.25.412-.461.597-.461z"/></svg>