<svg xmlns="http://www.w3.org/2000/svg" width="240" height="16">
  <path fill="#585C64" d="M8 0C3.6 0 0 3.6 0 8s3.6 8 8 8 8-3.6 8-8-3.6-8-8-8zm0 2c3.3 0 6 2.7 6 6s-2.7 6-6 6-6-2.7-6-6 2.7-6 6-6zm0 2c-.6 0-1 .5-1 1s.4 1 1 1 1-.4 1-1-.4-1-1-1zM4.7 6c-.5.2-.8.8-.7 1.3.1.2.1.3.3.4l1.8 1.8c0 .2-.1.4-.1.5 0 1.1.9 2 2 2s2-.9 2-2-.9-2-2-2c-.2 0-.3.1-.5.2L5.7 6.3c-.2-.2-.6-.3-.9-.3h-.1zM11 6c-.6 0-1 .4-1 1s.4 1 1 1 1-.4 1-1-.4-1-1-1zM24 0c-4.4 0-8 3.6-8 8s3.6 8 8 8 8-3.6 8-8-3.6-8-8-8zm0 2c.7 0 1.3.2 1.9.4-.4.4-.9.8-.8 1.1s1.4.3 1.4 1c0 .5-.8.7-.3 1.3.7.7-1.3 2-1.3 2.9-.1 1.7 1.7 1.9 3.1 1.9.8 0 1.1.4 1 .9-1.1 1.5-2.9 2.5-4.9 2.5-.8 0-1.5-.2-2.1-.4.4-.9-.6-2.6-1.5-3.2-.5-.5-1.4-.3-2-.5-.3-.5-.5-1-.5-1.6.1-.1.2-.2.3-.2.4 0 .9.8 1.2.7.4-.1-1.5-2.6-.6-3.1.4-.2 1.2.8.9-.3-.2-1 .7-.6 1.3-.8.5-.2.9-.8.3-1.2-.1-.1-.3-.2-.4-.4.8-.6 1.9-.9 3-1zm4.6 2.2c.4.4.6.9.9 1.4v.1l-.4.4c-.6.6-.6-.4-.9-.6s-1.2 0-1.3-.3c-.2-.3 1-.8 1.7-1zM38 0c-.6 0-1.1.2-1.4.6S36 1.5 36 2s.4 1 .6 1.4c.1.1.1.3.1.6H32v12h4.6c0-.2 0-.4-.1-.6-.1-.4-.5-.8-.5-1.4s.2-1.1.6-1.4c.4-.4.9-.6 1.4-.6s1.1.2 1.4.6c.4.4.6.9.6 1.4 0 .6-.4 1-.6 1.4-.1.1-.1.3-.1.6H44v-4.6c.2 0 .4 0 .6.1.5.2.9.6 1.4.6s1.1-.2 1.4-.6c.4-.4.6-.9.6-1.4s-.2-1.1-.6-1.4S46.6 8 46 8s-1 .4-1.4.6c-.1.1-.3.1-.6.1V4h-4.6c0-.2 0-.4.1-.6.2-.4.5-.8.5-1.4s-.2-1-.5-1.4S38.6 0 38 0zM55.1 0l-1 2.4-.6.3-2.4-1-1.4 1.4 1 2.4-.3.6-2.4 1v2l2.4 1 .3.6-1 2.4 1.4 1.4 2.4-1 .6.3 1 2.4h2l1-2.4.6-.3 2.4 1 1.4-1.4-1-2.4.3-.6L64 9V7l-2.4-1-.3-.6 1-2.4L61 1.7l-2.4 1-.6-.3L57 0h-1.9zm.9 5c1.7 0 3 1.3 3 3s-1.3 3-3 3-3-1.3-3-3 1.4-3 3-3zM75.1-.1c-2.8 0-5 2.2-5 5 0 .6.2 1.2.4 1.8l-5.8 5.7c-.8.8-.8 2.1 0 2.9.4.4.9.6 1.4.6s1-.2 1.4-.6l5.7-5.8c.6.2 1.2.4 1.8.4 2.8 0 5-2.2 5-5 0-.3 0-.6-.1-.9L78 5.9h-4V2l2-2c-.3 0-.6 0-.9-.1zm-9 13c.6 0 1 .4 1 1s-.4 1-1 1-1-.4-1-1 .4-1 1-1z"/>
  <path fill="#585C64" d="M88 0l-.4.2-7 2.9-.6.3V4c0 3.3 1.3 6.2 2.9 8.3.8 1.1 1.6 1.9 2.5 2.5.8.6 1.6 1.1 2.5 1.1s1.7-.4 2.5-1.1c.8-.6 1.7-1.5 2.5-2.5 1.6-2.1 2.9-5 2.9-8.3v-.7l-.6-.3-7-2.9L88 0zm0 2.2v11.7c-.1 0-.7-.1-1.3-.6-.7-.5-1.4-1.3-2.1-2.2-1.3-1.7-2.3-4-2.4-6.5L88 2.2zM104 0c-4.4 0-8 3.6-8 8s3.6 8 8 8 8-3.6 8-8-3.6-8-8-8zm0 2c1.3 0 2.5.4 3.5 1.1l-8.4 8.4c-.7-1-1.1-2.2-1.1-3.5 0-3.3 2.7-6 6-6zm4.9 2.5c.7 1 1.1 2.2 1.1 3.5 0 3.3-2.7 6-6 6-1.3 0-2.5-.4-3.5-1.1l8.4-8.4z"/>
  <path fill="#FDCD69" d="M159.5 10.5l-4.8-8c-.6-1.1-1.6-1.7-2.7-1.7s-2 .6-2.7 1.7l-4.8 8c-.4.6-.5 1.2-.5 1.8 0 .5.1.9.3 1.3.5.9 1.5 1.4 2.8 1.4h9.8c1.2 0 2.3-.5 2.8-1.4.2-.4.3-.8.3-1.3 0-.6-.2-1.2-.5-1.8zM152 4.9c.7 0 1.3.6 1.3 1.3s-.6 1.3-1.3 1.3-1.3-.6-1.3-1.3c0-.8.6-1.3 1.3-1.3zm1.4 6.8s-.7.7-1.7.7h-.1c-.4 0-.8-.2-1-.5-.3-.4-.3-.9-.1-1.5l.3-1c.2-.6 0-.6-.1-.7h-.1c-.2 0-.5.1-.6.2-.1 0-.2 0-.3-.1s-.1-.2 0-.3c0 0 .7-.8 1.8-.7.4 0 .8.2 1 .5.3.4.3.9.1 1.5l-.3 1c-.2.6 0 .6.1.7h.1c.2 0 .5-.1.6-.2.1 0 .2 0 .3.1v.3z"/>
  <path fill="#585C64" d="M166.5.5l-.9 3.1-1.6 5.1-.1-.1-.2-.7H160v2h2.3l.8 2.3.9 2.9.9-3 1.6-5 1.6 5 .8 2.7 1.1-2.6 1.2-2.9.3.6h4.6v-2h-3.4l-.8-1.5-1-1.9-.9 2-.9 2.4-1.7-5.3c0-.1-.9-3.1-.9-3.1z"/>
  <path fill="#585C64" d="M184 0c-4.4 0-8 3.6-8 8s3.6 8 8 8 8-3.6 8-8-3.6-8-8-8zm0 14c-3.3 0-6-2.7-6-6s2.7-6 6-6 6 2.7 6 6-2.7 6-6 6z"/>
  <path fill="#585C64" d="M186.1 8c-.4.3-.9.6-1.1.6-.2.1-.2.2-.2.4v.3h-2v-.7c0-.5.1-.8.6-1.1l.7-.4c.3-.1.6-.3.6-.5 0-.3-.3-.4-.8-.4-.6 0-1.2.2-1.6.5l-.6-1.7c.3-.2 1-.6 2.5-.6s2.5.9 2.5 2c0 .9-.3 1.3-.6 1.6zm-2.3 3.9c-.8 0-1.3-.4-1.3-1.1s.5-1.1 1.3-1.1 1.3.4 1.3 1.1-.5 1.1-1.3 1.1zM120 0c-4.4 0-8 3.6-8 8s3.6 8 8 8 8-3.6 8-8-3.6-8-8-8zm4.5 6.4l-5.4 5.4c-.2.2-.4.3-.6.3s-.5-.1-.6-.3l-2.6-2.6c-.4-.4-.4-.9 0-1.3s.9-.4 1.3 0l2 2 4.7-4.7c.4-.4.9-.4 1.3 0 .3.3.3.9-.1 1.2zM200 0c-2.2 0-4 2.2-4 5s1.8 5 4 5 4-2.2 4-5-1.8-5-4-5zm-4.2 10c-2.1.1-3.8 1.8-3.8 4v2h16v-2c0-2.2-1.7-3.9-3.8-4-1.1 1.2-2.6 2-4.2 2s-3.1-.8-4.2-2zM208 2v2l8 4 8-4V2h-16zm0 4v8h16V6l-8 4-8-4zM235.8 4.3c-.2-.2-.4-.2-.6-.2s-.4.1-.6.2l-1.8 1.8V.8c0-.4-.4-.8-.8-.8s-.8.4-.8.8v5.4l-1.8-1.8c-.2-.2-.4-.2-.6-.2-.2 0-.4.1-.6.2-.3.3-.3.8 0 1.1l3.8 3.7 3.8-3.7c.3-.4.3-.9 0-1.2zm3.4 6.9v-.3l-1.6-4.8c-.1-.3-.4-.5-.8-.5h-.2c-.1.2-.2.3-.3.4l-1.2 1.2h1.1l1.3 4h-11.1l1.3-4h1.1L227.7 6c-.1-.1-.2-.3-.3-.4h-.2c-.3 0-.6.2-.8.5l-1.6 4.8v4.3c0 .4.4.8.8.8h12.8c.4 0 .8-.4.8-.8.1 0 .1-4 0-4zM136.076 0c-4.172 0-7.554 1.03-7.554 2.3.29 2.466 1.848 9.573 2.094 10.946.302 1.721 3.335 2.754 5.457 2.754 2.123 0 5.158-1.033 5.458-2.754.143-.815 1.702-7.85 2.094-10.945C143.632 1.03 140.25 0 136.076 0zm4.703 9.487l-1.588-1.431 2.288-1.972-.7 3.403zm-3.085-1.446l-1.635 1.41-1.732-1.496 1.671-1.44 1.696 1.526zm-2.392 2.064l-1.633 1.408-1.732-1.496 1.632-1.407 1.733 1.495zm.757.653l1.733 1.496-1.62 1.417-1.743-1.506 1.63-1.407zm.758-.653l1.618-1.395 1.678 1.513-1.568 1.372-1.728-1.49zm1.632-2.717l-1.255-1.128c1.15-.06 2.194-.212 3.06-.425l-1.805 1.553zm-3.661-1.139l-1.223 1.054-1.718-1.482c.836.21 1.84.36 2.94.428zm-1.977 1.706L131.32 9.24l-.641-3.122 2.133 1.837zm-1.099 3.174l1.2 1.036-.836.725-.364-1.76zm1.957 1.69l1.64 1.414a8.96 8.96 0 0 1-2.53-.643l.89-.77zm4.88.086l.805.692a8.917 8.917 0 0 1-2.298.612l1.493-1.304zm.752-.658l1.11-.973-.34 1.64-.77-.667zm-3.225-10.762c2.93 0 5.305.588 5.305 1.311 0 .726-2.375 1.31-5.305 1.31s-5.303-.588-5.303-1.31 2.374-1.311 5.303-1.311z"/>
</svg>