<svg xmlns="http://www.w3.org/2000/svg" viewBox="0 0 100 30">
  <path fill="#F7931A" d="M21.52 17.44c-1.35 5.41-6.83 8.71-12.24 7.35-5.41-1.35-8.7-6.83-7.35-12.24s6.82-8.71 12.23-7.36c5.42 1.35 8.71 6.84 7.36 12.25z"/>
  <path fill="#FFF" d="M16.17 13.56c.2-1.35-.82-2.07-2.23-2.55l.45-1.82-1.11-.28-.45 1.77c-.29-.08-.59-.15-.89-.21l.45-1.78-1.1-.28-.45 1.82c-.24-.06-.47-.11-.7-.17v-.01l-1.53-.38-.29 1.19s.82.18.8.2c.45.12.53.41.51.65l-.51 2.07c.03.01.07.02.12.04l-.12-.03-.73 2.9c-.06.14-.19.34-.5.26.01.02-.8-.2-.8-.2l-.55 1.27 1.44.36c.27.07.53.14.79.2l-.45 1.84 1.1.28.45-1.82c.3.08.6.15.88.23l-.45 1.81 1.11.28.45-1.84c1.89.36 3.31.21 3.91-1.5.48-1.37-.02-2.17-1.02-2.69.74-.15 1.28-.63 1.42-1.61zm-2.53 3.55c-.34 1.37-2.66.63-3.42.45l.61-2.44c.76.18 3.17.55 2.81 1.99zm.35-3.57c-.31 1.25-2.25.62-2.86.46l.55-2.22c.61.16 2.63.45 2.31 1.76z"/>
  <g fill="#4D4D4D">
    <path d="M31.22 11.01c.82 0 1.53.15 2.12.44.6.29 1.09.69 1.49 1.18.39.49.68 1.07.87 1.74.18.67.28 1.38.28 2.15 0 1.18-.21 2.29-.65 3.34a8.817 8.817 0 0 1-1.78 2.74 8.61 8.61 0 0 1-2.66 1.84c-1.02.45-2.13.68-3.32.68-.15 0-.43 0-.8-.01-.38-.01-.82-.05-1.32-.12-.49-.07-1.02-.17-1.58-.31-.55-.14-1.07-.32-1.58-.56l4.43-18.6 3.96-.61-1.59 6.6c.34-.15.68-.27 1.03-.36.35-.1.72-.14 1.1-.14zM27.9 21.96c.6 0 1.16-.15 1.68-.44.53-.29.99-.68 1.37-1.16.39-.48.69-1.04.91-1.65.22-.61.33-1.26.33-1.92 0-.82-.14-1.45-.41-1.92-.26-.44-.76-.68-1.5-.68-.24 0-.55.05-.93.13-.39.09-.73.27-1.04.54l-1.68 7.01c.11.02.19.04.27.05.08.02.15.03.24.04.09.01.18.02.31.02.11-.02.26-.02.45-.02zM40.09 24.74h-3.78l3.19-13.45h3.81l-3.22 13.45zm1.85-15.08c-.53 0-1.01-.15-1.43-.47-.43-.31-.64-.79-.64-1.44 0-.36.08-.7.21-1.01.15-.32.34-.59.58-.82s.51-.42.83-.55c.32-.14.65-.2 1.02-.2.53 0 1.01.15 1.43.47.42.32.64.8.64 1.44 0 .36-.07.7-.21 1.01-.15.32-.34.59-.57.82-.24.23-.51.42-.83.55-.35.13-.68.2-1.03.2zM46.63 7.94l3.97-.61-.98 3.97h4.25l-.77 3.11h-4.22l-1.12 4.7c-.11.4-.16.75-.17 1.1-.02.34.03.64.13.88.11.25.28.44.55.57.26.14.64.2 1.14.2.41 0 .8-.04 1.19-.12.39-.08.77-.18 1.16-.32l.28 2.91c-.51.18-1.06.35-1.66.48-.6.14-1.31.2-2.12.2-1.17 0-2.09-.17-2.74-.52-.65-.35-1.1-.83-1.38-1.43-.27-.6-.39-1.3-.36-2.08.04-.78.15-1.61.36-2.48-.02.02 2.49-10.56 2.49-10.56zM53.69 19.37c0-1.16.18-2.25.56-3.27.38-1.03.91-1.92 1.62-2.69a7.58 7.58 0 0 1 2.55-1.81c1-.45 2.11-.67 3.34-.67.76 0 1.45.08 2.06.22.61.15 1.15.34 1.65.57l-1.31 2.97c-.34-.14-.7-.26-1.06-.37-.37-.12-.81-.16-1.35-.16-1.27 0-2.26.44-3.01 1.31s-1.11 2.04-1.11 3.5c0 .87.18 1.57.56 2.11s1.06.8 2.07.8c.49 0 .98-.05 1.43-.15.46-.11.87-.23 1.23-.39l.28 3.04c-.47.18-1.01.36-1.59.5-.58.15-1.27.21-2.07.21-1.05 0-1.95-.15-2.68-.45-.74-.31-1.34-.72-1.81-1.24-.48-.52-.82-1.13-1.04-1.83-.2-.7-.32-1.43-.32-2.2zM70.51 25.1c-.9 0-1.68-.14-2.35-.41s-1.21-.66-1.65-1.15c-.44-.49-.76-1.07-.99-1.75-.22-.68-.33-1.42-.33-2.24 0-1.03.16-2.05.49-3.07.33-1.03.82-1.95 1.47-2.76.65-.82 1.44-1.49 2.38-2.01.94-.52 2.01-.78 3.22-.78.89 0 1.66.14 2.34.41.67.27 1.23.66 1.66 1.15.44.49.76 1.07.98 1.75.22.67.33 1.42.33 2.24 0 1.03-.16 2.04-.48 3.07a8.73 8.73 0 0 1-1.43 2.76 7.51 7.51 0 0 1-2.36 2c-.94.53-2.04.79-3.28.79zm1.89-10.94c-.56 0-1.05.16-1.48.48-.43.33-.78.74-1.07 1.23-.29.49-.5 1.04-.66 1.63a6.7 6.7 0 0 0-.21 1.67c0 .85.14 1.52.41 1.99s.76.72 1.48.72c.56 0 1.05-.16 1.48-.48.43-.32.78-.74 1.07-1.23.29-.49.5-1.04.66-1.63a6.7 6.7 0 0 0 .21-1.67c0-.85-.14-1.52-.41-1.99-.27-.49-.76-.72-1.48-.72zM82.2 24.74h-3.78l3.19-13.45h3.81L82.2 24.74zm1.84-15.08c-.53 0-1.01-.15-1.43-.47-.43-.31-.64-.79-.64-1.44 0-.36.08-.7.22-1.01.15-.32.34-.59.58-.82.24-.23.51-.42.83-.55.31-.14.65-.2 1.01-.2.53 0 1.01.15 1.43.47.42.32.64.8.64 1.44 0 .36-.08.7-.22 1.01-.15.32-.34.59-.57.82a2.614 2.614 0 0 1-1.85.75zM88.14 11.9l.96-.29c.35-.11.75-.21 1.18-.3.44-.1.92-.17 1.45-.23.53-.06 1.15-.09 1.83-.09 1.99 0 3.37.58 4.13 1.74.75 1.16.89 2.75.4 4.75l-1.74 7.26h-3.81l1.68-7.11c.11-.45.18-.87.24-1.3.06-.42.06-.78-.01-1.1-.07-.31-.22-.57-.47-.76s-.63-.29-1.14-.29c-.49 0-1 .05-1.51.15l-2.48 10.4h-3.81c.01.01 3.1-12.83 3.1-12.83z"/>
  </g>
</svg>