<svg xmlns="http://www.w3.org/2000/svg" viewBox="0 0 100 30">
  <path fill="#253B80" d="M37.39 8.25h-5.53c-.37 0-.7.28-.76.64l-2.23 14.19c-.05.28.18.54.46.54h2.64c.37 0 .7-.28.76-.65l.61-3.82c.06-.37.39-.65.76-.65h1.75c3.65 0 5.75-1.77 6.3-5.26.25-1.53.01-2.74-.7-3.57-.81-.93-2.2-1.42-4.06-1.42zm.64 5.18c-.3 1.99-1.82 1.99-3.29 1.99h-.83l.58-3.71c.04-.22.23-.39.46-.39h.39c.99 0 1.94 0 2.43.57.28.34.37.84.26 1.54zM53.94 13.37h-2.65a.47.47 0 0 0-.46.39l-.12.74-.19-.27c-.57-.83-1.85-1.11-3.13-1.11-2.92 0-5.43 2.22-5.92 5.33-.26 1.56.11 3.04.98 4.07.81.95 1.96 1.35 3.33 1.35 2.36 0 3.67-1.52 3.67-1.52l-.12.74c-.05.28.18.54.46.54h2.39c.37 0 .7-.28.76-.65l1.43-9.08a.435.435 0 0 0-.43-.53zm-3.7 5.16c-.26 1.51-1.46 2.53-2.99 2.53-.77 0-1.38-.25-1.78-.71-.39-.47-.54-1.12-.42-1.86a2.96 2.96 0 0 1 2.97-2.55c.75 0 1.37.25 1.77.73.4.46.57 1.13.45 1.86zM68.05 13.37h-2.67c-.26 0-.49.13-.63.34l-3.67 5.42-1.56-5.2a.762.762 0 0 0-.74-.55h-2.62c-.32 0-.54.32-.43.61l2.94 8.61-2.76 3.89c-.22.3 0 .73.37.73h2.65c.26 0 .49-.13.63-.33l8.85-12.78c.23-.33.01-.74-.36-.74z"/>
  <path fill="#179BD7" d="M76.86 8.25h-5.53c-.37 0-.7.28-.76.64l-2.23 14.19c-.05.28.18.54.46.54h2.84c.27 0 .49-.19.53-.46l.63-4.02c.06-.37.39-.65.76-.65h1.75c3.65 0 5.75-1.77 6.3-5.26.25-1.53.01-2.74-.7-3.57-.8-.92-2.19-1.41-4.05-1.41zm.64 5.18c-.3 1.99-1.82 1.99-3.29 1.99h-.83l.58-3.71c.04-.22.22-.39.46-.39h.39c.99 0 1.94 0 2.43.57.29.34.38.84.26 1.54zM93.41 13.37h-2.65a.47.47 0 0 0-.46.39l-.12.74-.19-.27c-.57-.83-1.85-1.11-3.13-1.11-2.92 0-5.43 2.22-5.92 5.33-.26 1.56.11 3.04.98 4.07.81.95 1.96 1.35 3.33 1.35 2.36 0 3.67-1.52 3.67-1.52l-.12.74c-.05.28.18.54.46.54h2.39c.37 0 .7-.28.76-.65l1.44-9.08a.442.442 0 0 0-.44-.53zm-3.7 5.16c-.26 1.51-1.46 2.53-2.99 2.53-.77 0-1.38-.25-1.78-.71-.39-.47-.54-1.12-.42-1.86.25-1.5 1.46-2.55 2.97-2.55.75 0 1.37.25 1.77.73.41.46.57 1.13.45 1.86zM96.53 8.64l-2.27 14.45c-.05.28.18.54.46.54H97c.37 0 .7-.28.76-.65l2.23-14.2a.469.469 0 0 0-.46-.54h-2.56c-.2.01-.4.18-.44.4z"/>
  <path fill="#253B80" d="M5.88 26.38l.42-2.69-.95-.02H.85L3.98 3.83c.02-.06.05-.12.09-.15.05-.04.11-.06.16-.06h7.59c2.51 0 4.26.53 5.17 1.56.42.49.7.99.83 1.56.14.58.14 1.29 0 2.14v.61l.42.25c.36.19.64.41.87.65.36.41.6.95.7 1.57.11.64.07 1.4-.11 2.28-.2.99-.5 1.86-.94 2.57-.39.65-.89 1.19-1.47 1.61-.56.4-1.23.7-1.99.9-.74.19-1.57.29-2.49.29h-.6c-.42 0-.83.15-1.16.42-.33.28-.54.65-.6 1.08l-.05.25-.73 4.73-.04.18c-.01.06-.02.08-.05.11-.02 0-.04.01-.08.01.03-.01-3.62-.01-3.62-.01z"/>
  <path fill="#179BD7" d="M18.65 8.99c-.02.14-.05.29-.08.44-1.01 5.13-4.42 6.91-8.8 6.91H7.55c-.54 0-.98.39-1.06.91l-1.14 7.24-.33 2.05c-.06.35.21.65.56.65h3.95c.47 0 .87-.34.94-.8l.04-.2.75-4.73.05-.26c.07-.47.47-.81.94-.81h.6c3.82 0 6.82-1.56 7.7-6.05.36-1.88.18-3.45-.8-4.55-.32-.3-.68-.57-1.1-.8z"/>
  <path fill="#222D65" d="M17.6 8.58c-.15-.05-.32-.08-.47-.12-.16-.04-.33-.07-.5-.09-.6-.09-1.26-.14-1.96-.14H8.71c-.15 0-.28.04-.41.09-.27.12-.48.37-.53.7l-1.26 8.01-.04.23c.08-.53.54-.91 1.06-.91h2.22c4.37 0 7.8-1.78 8.8-6.91.04-.15.06-.3.08-.44-.26-.13-.53-.25-.82-.35-.06-.02-.13-.05-.21-.07z"/>
  <path fill="#253B80" d="M7.77 9.02c.05-.32.26-.58.53-.71.13-.06.27-.09.41-.09h5.95c.7 0 1.37.05 1.96.14.18.02.34.06.5.09.16.04.32.08.47.12.08.02.15.05.22.07.29.09.57.21.82.35.29-1.89 0-3.19-1.03-4.36-1.13-1.29-3.16-1.84-5.78-1.84H4.24c-.54 0-.99.39-1.07.91L.01 23.74c-.06.4.25.75.64.75h4.69l1.18-7.46 1.25-8.01z"/>
</svg>