<svg xmlns="http://www.w3.org/2000/svg" xmlns:xlink="http://www.w3.org/1999/xlink" viewBox="0 0 100 30"><g opacity=".6"><defs><path id="a" d="M0 11.155h18.114v9.472H0z"/></defs><clipPath id="b"><use xlink:href="#a" overflow="visible"/></clipPath><path clip-path="url(#b)" fill="#010101" d="M9.059 11.155L0 15.275l9.059 5.353 9.055-5.353-9.055-4.119v-.001z"/></g><g opacity=".45"><defs><path id="c" d="M0 .245h9.059v20.383H0z"/></defs><clipPath id="d"><use xlink:href="#c" overflow="visible"/></clipPath><path clip-path="url(#d)" fill="#010101" d="M0 15.275l9.059 5.353V.244L0 15.276z"/></g><g opacity=".8"><defs><path id="e" d="M9.059.245h9.059v20.383H9.059z"/></defs><clipPath id="f"><use xlink:href="#e" overflow="visible"/></clipPath><path clip-path="url(#f)" fill="#010101" d="M9.059.245v20.383l9.055-5.353L9.06.245z"/></g><g opacity=".45"><defs><path id="g" d="M0 16.992h9.059v12.763H0z"/></defs><clipPath id="h"><use xlink:href="#g" overflow="visible"/></clipPath><path clip-path="url(#h)" fill="#010101" d="M0 16.992l9.059 12.762v-7.41L0 16.993z"/></g><g opacity=".8"><defs><path id="i" d="M9.059 16.992h9.062v12.763H9.059z"/></defs><clipPath id="j"><use xlink:href="#i" overflow="visible"/></clipPath><path clip-path="url(#j)" fill="#010101" d="M9.059 22.345v7.409l9.063-12.762-9.063 5.352z"/></g><path fill="#3C3C3B" d="M30.404 17.013a.31.31 0 0 1-.31.306h-5.971c.149 1.475 1.26 2.82 2.82 2.82 1.068 0 1.86-.407 2.457-1.259.086-.117.215-.192.38-.121.09.039.153.121.169.215.016.099-.012.153-.04.208-.6 1.048-1.796 1.562-2.97 1.562-2.008 0-3.44-1.797-3.44-3.72s1.432-3.719 3.44-3.719c2.01-.004 3.46 1.79 3.465 3.708m-.64-.29c-.13-1.476-1.26-2.821-2.82-2.821-1.562 0-2.672 1.345-2.821 2.82h5.64v.001zm7.886-3.272c.173 0 .298.149.298.298a.29.29 0 0 1-.298.298h-1.6v6.281c0 .149-.13.298-.3.298a.303.303 0 0 1-.297-.298v-6.281h-1.538a.29.29 0 0 1-.298-.298c0-.15.13-.298.298-.298h1.538v-2.3c0-.145.098-.278.24-.302.2-.03.356.106.356.295v2.307h1.6zm9.765 3.036v3.806c0 .172-.15.298-.298.298a.29.29 0 0 1-.298-.298v-3.806c0-1.283-.726-2.566-2.158-2.566-1.836 0-2.63 1.605-2.523 3.249 0 .043.02.235.02.255v2.856c0 .145-.098.278-.24.302-.2.031-.356-.106-.356-.294v-12.5c0-.149.13-.298.298-.298.172 0 .298.15.298.298v7.074c.514-.918 1.432-1.538 2.499-1.538 1.754 0 2.758 1.538 2.758 3.162m10.706.526a.31.31 0 0 1-.31.306h-5.975c.15 1.475 1.26 2.82 2.82 2.82 1.068 0 1.86-.407 2.457-1.259.087-.117.216-.192.38-.121a.287.287 0 0 1 .17.215.301.301 0 0 1-.04.208c-.6 1.048-1.797 1.562-2.97 1.562-2.008 0-3.44-1.797-3.44-3.72s1.432-3.719 3.44-3.719c2.013-.004 3.465 1.79 3.468 3.708m-.643-.29c-.13-1.476-1.26-2.821-2.82-2.821s-2.672 1.345-2.822 2.82h5.642v.001zm7.972-2.994c0 .192-.106.298-.28.322-1.752.255-2.541 1.687-2.541 3.354v2.856c0 .145-.098.279-.24.302-.2.032-.356-.106-.356-.294V13.76c0-.145.098-.278.24-.302.2-.031.356.106.356.295v1.326c.49-.832 1.475-1.625 2.5-1.625.148-.003.32.106.32.275m9.809 3.284a.31.31 0 0 1-.31.306h-5.971c.15 1.475 1.26 2.82 2.82 2.82 1.068 0 1.86-.407 2.457-1.259.086-.117.215-.192.38-.121.09.039.153.121.169.215.016.099-.012.153-.04.208-.6 1.048-1.796 1.562-2.97 1.562-2.008 0-3.44-1.797-3.44-3.72s1.432-3.719 3.44-3.719c2.01-.004 3.46 1.79 3.465 3.708m-.64-.29c-.13-1.476-1.26-2.821-2.82-2.821-1.562 0-2.672 1.345-2.821 2.82h5.642l-.001.001zm10.28-2.92v6.525c0 .173-.15.298-.3.298a.29.29 0 0 1-.297-.298v-1.24c-.49.985-1.37 1.687-2.48 1.687-1.773 0-2.757-1.538-2.757-3.162v-3.825c0-.15.129-.298.298-.298.172 0 .298.149.298.298v3.825c0 1.283.726 2.566 2.158 2.566 2.008 0 2.48-1.88 2.48-3.955v-2.436c0-.173.172-.35.384-.286a.32.32 0 0 1 .215.302m15.105 2.66v3.825c0 .172-.15.298-.298.298a.29.29 0 0 1-.3-.298v-3.825c0-1.283-.724-2.543-2.156-2.543-1.797 0-2.48 1.923-2.48 3.417v2.95a.303.303 0 0 1-.298.299.29.29 0 0 1-.298-.298v-3.825c0-1.283-.726-2.543-2.158-2.543-1.816 0-2.566 1.432-2.5 3.335 0 .043.02.13 0 .15v2.875a.3.3 0 0 1-.242.302c-.2.031-.357-.106-.357-.294V13.76c0-.145.098-.278.24-.302.2-.031.356.106.356.295v1.09c.514-.918 1.432-1.518 2.5-1.518 1.215 0 2.157.769 2.54 1.903.49-1.11 1.453-1.903 2.693-1.903 1.753 0 2.758 1.514 2.758 3.139"/></svg>