<svg xmlns="http://www.w3.org/2000/svg" xml:space="preserve" viewBox="0 0 24 24"><path fill="#1784c7" d="M4 4h16c1.1 0 2 .9 2 2v12c0 1.1-.9 2-2 2H4c-1.1 0-2-.9-2-2V6c0-1.1.9-2 2-2Z"/><path fill="#3a96cf" d="M4 3h16c1.65 0 3 1.35 3 3v12c0 1.65-1.35 3-3 3H4c-1.65 0-3-1.35-3-3V6c0-1.65 1.35-3 3-3Zm0 2c-.55 0-1 .45-1 1v12c0 .55.45 1 1 1h16c.55 0 1-.45 1-1V6c0-.55-.45-1-1-1H4Z"/><path fill="#3a96cf" d="M21.427 5.181a.998.998 0 1 1 1.146 1.638l-10 7a.999.999 0 0 1-1.146 0l-10-7a.998.998 0 1 1 1.146-1.638L12 11.779l9.427-6.598Z"/></svg>