<?xml version="1.0" encoding="utf-8"?>
<!-- Generator: Adobe Illustrator 20.0.0, SVG Export Plug-In . SVG Version: 6.00 Build 0)  -->
<svg version="1.1" id="Layer_1" xmlns="http://www.w3.org/2000/svg" xmlns:xlink="http://www.w3.org/1999/xlink" x="0px" y="0px"
	 width="224px" height="16px" viewBox="0 0 224 16" style="enable-background:new 0 0 224 16;" xml:space="preserve">
<style type="text/css">
	.st0{fill:#585C64;}
	.st1{display:none;fill:#585C64;}
	.st2{fill:#FDCD69;}
</style>
<path class="st0" d="M8,0C3.6,0,0,3.6,0,8s3.6,8,8,8s8-3.6,8-8S12.4,0,8,0z M8,2c3.3,0,6,2.7,6,6s-2.7,6-6,6s-6-2.7-6-6S4.7,2,8,2z
	 M8,4C7.4,4,7,4.5,7,5s0.4,1,1,1s1-0.4,1-1S8.6,4,8,4z M4.7,6C4.2,6.2,3.9,6.8,4,7.3c0.1,0.2,0.1,0.3,0.3,0.4l1.8,1.8
	C6.1,9.7,6,9.9,6,10c0,1.1,0.9,2,2,2s2-0.9,2-2S9.1,8,8,8C7.8,8,7.7,8.1,7.5,8.2L5.7,6.3C5.5,6.1,5.1,6,4.8,6H4.7L4.7,6z M11,6
	c-0.6,0-1,0.4-1,1s0.4,1,1,1s1-0.4,1-1S11.6,6,11,6z"/>
<path class="st0" d="M24,0c-4.4,0-8,3.6-8,8s3.6,8,8,8s8-3.6,8-8S28.4,0,24,0z M24,2c0.7,0,1.3,0.2,1.9,0.4
	c-0.4,0.4-0.9,0.8-0.8,1.1s1.4,0.3,1.4,1c0,0.5-0.8,0.7-0.3,1.3c0.7,0.7-1.3,2-1.3,2.9c-0.1,1.7,1.7,1.9,3.1,1.9
	c0.8,0,1.1,0.4,1,0.9C27.9,13,26.1,14,24.1,14c-0.8,0-1.5-0.2-2.1-0.4c0.4-0.9-0.6-2.6-1.5-3.2c-0.5-0.5-1.4-0.3-2-0.5
	c-0.3-0.5-0.5-1-0.5-1.6c0.1-0.1,0.2-0.2,0.3-0.2c0.4,0,0.9,0.8,1.2,0.7c0.4-0.1-1.5-2.6-0.6-3.1c0.4-0.2,1.2,0.8,0.9-0.3
	c-0.2-1,0.7-0.6,1.3-0.8c0.5-0.2,0.9-0.8,0.3-1.2C21.3,3.3,21.1,3.2,21,3C21.8,2.4,22.9,2.1,24,2L24,2z M28.6,4.2
	c0.4,0.4,0.6,0.9,0.9,1.4c0,0,0,0,0,0.1c-0.1,0.1-0.2,0.2-0.4,0.4c-0.6,0.6-0.6-0.4-0.9-0.6s-1.2,0-1.3-0.3
	C26.7,4.9,27.9,4.4,28.6,4.2z"/>
<path class="st0" d="M38,0c-0.6,0-1.1,0.2-1.4,0.6S36,1.5,36,2s0.4,1,0.6,1.4c0.1,0.1,0.1,0.3,0.1,0.6H32v12h4.6
	c0-0.2,0-0.4-0.1-0.6C36.4,15,36,14.6,36,14s0.2-1.1,0.6-1.4C37,12.2,37.5,12,38,12s1.1,0.2,1.4,0.6C39.8,13,40,13.5,40,14
	c0,0.6-0.4,1-0.6,1.4c-0.1,0.1-0.1,0.3-0.1,0.6H44v-4.6c0.2,0,0.4,0,0.6,0.1c0.5,0.2,0.9,0.6,1.4,0.6s1.1-0.2,1.4-0.6
	c0.4-0.4,0.6-0.9,0.6-1.4S47.8,9,47.4,8.7S46.6,8,46,8s-1,0.4-1.4,0.6c-0.1,0.1-0.3,0.1-0.6,0.1V4h-4.6c0-0.2,0-0.4,0.1-0.6
	C39.7,3,40,2.6,40,2s-0.2-1-0.5-1.4S38.6,0,38,0z"/>
<path class="st0" d="M55.1,0l-1,2.4c-0.2,0.1-0.4,0.2-0.6,0.3l-2.4-1l-1.4,1.4l1,2.4c-0.1,0.2-0.2,0.4-0.3,0.6l-2.4,1v2l2.4,1
	c0.1,0.2,0.2,0.4,0.3,0.6l-1,2.4l1.4,1.4l2.4-1c0.2,0.1,0.4,0.2,0.6,0.3l1,2.4h2l1-2.4c0.2-0.1,0.4-0.2,0.6-0.3l2.4,1l1.4-1.4
	l-1-2.4c0.1-0.2,0.2-0.4,0.3-0.6L64,9V7l-2.4-1c-0.1-0.2-0.2-0.4-0.3-0.6l1-2.4L61,1.7l-2.4,1c-0.2-0.1-0.4-0.2-0.6-0.3L57,0H55.1z
	 M56,5c1.7,0,3,1.3,3,3s-1.3,3-3,3s-3-1.3-3-3S54.4,5,56,5z"/>
<path class="st0" d="M75.1-0.1c-2.8,0-5,2.2-5,5c0,0.6,0.2,1.2,0.4,1.8l-5.8,5.7c-0.8,0.8-0.8,2.1,0,2.9c0.4,0.4,0.9,0.6,1.4,0.6
	s1-0.2,1.4-0.6l5.7-5.8c0.6,0.2,1.2,0.4,1.8,0.4c2.8,0,5-2.2,5-5c0-0.3,0-0.6-0.1-0.9L78,5.9h-4V2l2-2C75.7,0,75.4,0,75.1-0.1
	L75.1-0.1z M66.1,12.9c0.6,0,1,0.4,1,1s-0.4,1-1,1s-1-0.4-1-1S65.5,12.9,66.1,12.9z"/>
<path class="st0" d="M88,0l-0.4,0.2l-7,2.9L80,3.4V4c0,3.3,1.3,6.2,2.9,8.3c0.8,1.1,1.6,1.9,2.5,2.5c0.8,0.6,1.6,1.1,2.5,1.1
	s1.7-0.4,2.5-1.1c0.8-0.6,1.7-1.5,2.5-2.5c1.6-2.1,2.9-5,2.9-8.3V3.3L95.2,3l-7-2.9C88.4,0.2,88,0,88,0z M88,2.2v11.7
	c-0.1,0-0.7-0.1-1.3-0.6c-0.7-0.5-1.4-1.3-2.1-2.2c-1.3-1.7-2.3-4-2.4-6.5L88,2.2L88,2.2z"/>
<path class="st0" d="M104,0c-4.4,0-8,3.6-8,8s3.6,8,8,8s8-3.6,8-8S108.4,0,104,0z M104,2c1.3,0,2.5,0.4,3.5,1.1l-8.4,8.4
	C98.4,10.5,98,9.3,98,8C98,4.7,100.7,2,104,2z M108.9,4.5c0.7,1,1.1,2.2,1.1,3.5c0,3.3-2.7,6-6,6c-1.3,0-2.5-0.4-3.5-1.1L108.9,4.5z
	"/>
<path class="st1" d="M117.7,13.7c-0.2,0.2-0.4,0.3-0.7,0.3c-0.2,0-0.5-0.2-0.7-0.3L112,9.4l1.4-1.4l3.6,3.6l9.6-9.7l1.4,1.4
	L117.7,13.7z"/>
<path class="st0" d="M136,0c-4.4,0-8,3.6-8,8s3.6,8,8,8s8-3.6,8-8S140.4,0,136,0z M139.7,10.3c0.4,0.4,0.4,1,0,1.4
	c-0.2,0.2-0.5,0.3-0.7,0.3s-0.5-0.1-0.7-0.3L136,9.4l-2.3,2.3c-0.2,0.2-0.5,0.3-0.7,0.3s-0.5-0.1-0.7-0.3c-0.4-0.4-0.4-1,0-1.4
	l2.3-2.3l-2.3-2.3c-0.4-0.4-0.4-1,0-1.4s1-0.4,1.4,0l2.3,2.3l2.3-2.3c0.4-0.4,1-0.4,1.4,0s0.4,1,0,1.4L137.4,8L139.7,10.3z"/>
<path class="st2" d="M159.5,10.5l-4.8-8c-0.6-1.1-1.6-1.7-2.7-1.7s-2,0.6-2.7,1.7l-4.8,8c-0.4,0.6-0.5,1.2-0.5,1.8
	c0,0.5,0.1,0.9,0.3,1.3c0.5,0.9,1.5,1.4,2.8,1.4h9.8c1.2,0,2.3-0.5,2.8-1.4c0.2-0.4,0.3-0.8,0.3-1.3C160,11.7,159.8,11.1,159.5,10.5
	z M152,4.9c0.7,0,1.3,0.6,1.3,1.3s-0.6,1.3-1.3,1.3s-1.3-0.6-1.3-1.3C150.7,5.4,151.3,4.9,152,4.9z M153.4,11.7c0,0-0.7,0.7-1.7,0.7
	h-0.1c-0.4,0-0.8-0.2-1-0.5c-0.3-0.4-0.3-0.9-0.1-1.5l0.3-1c0.2-0.6,0-0.6-0.1-0.7h-0.1c-0.2,0-0.5,0.1-0.6,0.2
	c-0.1,0-0.2,0-0.3-0.1s-0.1-0.2,0-0.3c0,0,0.7-0.8,1.8-0.7c0.4,0,0.8,0.2,1,0.5c0.3,0.4,0.3,0.9,0.1,1.5l-0.3,1
	c-0.2,0.6,0,0.6,0.1,0.7h0.1c0.2,0,0.5-0.1,0.6-0.2c0.1,0,0.2,0,0.3,0.1C153.4,11.6,153.4,11.7,153.4,11.7z"/>
<path class="st0" d="M166.5,0.5l-0.9,3.1L164,8.7l-0.1-0.1l-0.2-0.7H160v2h2.3l0.8,2.3l0.9,2.9l0.9-3l1.6-5l1.6,5l0.8,2.7l1.1-2.6
	l1.2-2.9l0.3,0.6h4.6v-2h-3.4l-0.8-1.5l-1-1.9l-0.9,2l-0.9,2.4l-1.7-5.3C167.4,3.5,166.5,0.5,166.5,0.5z"/>
<path class="st0" d="M184,0c-4.4,0-8,3.6-8,8s3.6,8,8,8s8-3.6,8-8S188.4,0,184,0z M184,14c-3.3,0-6-2.7-6-6s2.7-6,6-6s6,2.7,6,6
	S187.3,14,184,14z"/>
<path class="st0" d="M186.1,8c-0.4,0.3-0.9,0.6-1.1,0.6c-0.2,0.1-0.2,0.2-0.2,0.4v0.3h-2V8.6c0-0.5,0.1-0.8,0.6-1.1l0.7-0.4
	c0.3-0.1,0.6-0.3,0.6-0.5c0-0.3-0.3-0.4-0.8-0.4c-0.6,0-1.2,0.2-1.6,0.5L181.7,5c0.3-0.2,1-0.6,2.5-0.6s2.5,0.9,2.5,2
	C186.7,7.3,186.4,7.7,186.1,8z M183.8,11.9c-0.8,0-1.3-0.4-1.3-1.1s0.5-1.1,1.3-1.1s1.3,0.4,1.3,1.1S184.6,11.9,183.8,11.9z"/>
<path class="st1" d="M136.5,0c-4.2,0-7.6,1-7.6,2.3c0.3,2.5,1.8,9.6,2.1,10.9c0.3,1.7,3.3,2.8,5.5,2.8c2.1,0,5.2-1,5.5-2.8
	c0.1-0.8,1.7-7.8,2.1-10.9C144,1,140.6,0,136.5,0z M141.2,9.5l-1.6-1.4l2.3-2L141.2,9.5z M138.1,8l-1.6,1.4L134.7,8l1.7-1.4L138.1,8
	z M135.7,10.1l-1.6,1.4l-1.7-1.5l1.6-1.4L135.7,10.1z M136.4,10.8l1.7,1.5l-1.6,1.4l-1.7-1.5L136.4,10.8z M137.2,10.1l1.6-1.4
	l1.7,1.5l-1.6,1.4L137.2,10.1z M138.8,7.4l-1.3-1.1c1.1-0.1,2.2-0.2,3.1-0.4L138.8,7.4z M135.2,6.2L134,7.3l-1.7-1.5
	C133.1,6,134.1,6.2,135.2,6.2z M133.2,8l-1.5,1.3l-0.6-3.1L133.2,8z M132.1,11.1l1.2,1l-0.8,0.7L132.1,11.1z M134,12.8l1.6,1.4
	c-0.8-0.1-1.7-0.3-2.5-0.6L134,12.8z M138.9,12.9l0.8,0.7c-0.7,0.3-1.5,0.5-2.3,0.6L138.9,12.9z M139.7,12.2l1.1-1l-0.3,1.6
	L139.7,12.2z M136.5,1.5c2.9,0,5.3,0.6,5.3,1.3s-2.4,1.3-5.3,1.3s-5.3-0.6-5.3-1.3S133.5,1.5,136.5,1.5z"/>
<path class="st1" d="M136,0c-4.4,0-8,3.6-8,8s3.6,8,8,8s8-3.6,8-8S140.4,0,136,0z M139.3,11.3c-0.2,0.2-0.4,0.3-0.6,0.3
	s-0.5-0.1-0.6-0.3l-2-2l-2,2c-0.2,0.2-0.4,0.3-0.6,0.3c-0.2,0-0.5-0.1-0.6-0.3c-0.3-0.3-0.3-0.9,0-1.3l2-2l-2-2
	c-0.3-0.3-0.3-0.9,0-1.3c0.3-0.3,0.9-0.3,1.3,0l2,2l2-2c0.3-0.3,0.9-0.3,1.3,0c0.4,0.3,0.4,0.9,0,1.3l-2,2l2,2
	C139.6,10.4,139.6,10.9,139.3,11.3z"/>
<path class="st0" d="M120,0c-4.4,0-8,3.6-8,8s3.6,8,8,8s8-3.6,8-8S124.4,0,120,0z M124.5,6.4l-5.4,5.4c-0.2,0.2-0.4,0.3-0.6,0.3
	s-0.5-0.1-0.6-0.3l-2.6-2.6c-0.4-0.4-0.4-0.9,0-1.3c0.4-0.4,0.9-0.4,1.3,0l2,2l4.7-4.7c0.4-0.4,0.9-0.4,1.3,0
	C124.9,5.5,124.9,6.1,124.5,6.4z"/>
<path class="st0" d="M200,0c-2.2,0-4,2.2-4,5s1.8,5,4,5s4-2.2,4-5S202.2,0,200,0z M195.8,10c-2.1,0.1-3.8,1.8-3.8,4v2h16v-2
	c0-2.2-1.7-3.9-3.8-4c-1.1,1.2-2.6,2-4.2,2S196.9,11.2,195.8,10z"/>
<path class="st0" d="M208,2v2l8,4l8-4V2H208z M208,6v8h16V6l-8,4L208,6z"/>
</svg>
