<?xml version="1.0" encoding="utf-8"?>
<!-- Generator: Adobe Illustrator 19.2.0, SVG Export Plug-In . SVG Version: 6.00 Build 0)  -->
<svg version="1.1" id="Layer_1" xmlns="http://www.w3.org/2000/svg" xmlns:xlink="http://www.w3.org/1999/xlink" x="0px" y="0px"
	 width="160px" height="16px" viewBox="0 0 160 16" style="enable-background:new 0 0 160 16;" xml:space="preserve">
<style type="text/css">
	.st0{fill:#585C64;}
	.st1{fill:#FDCD69;}
</style>
<path class="st0" d="M8,0C3.6,0,0,3.6,0,8s3.6,8,8,8s8-3.6,8-8S12.4,0,8,0z M8,2c3.3,0,6,2.7,6,6s-2.7,6-6,6s-6-2.7-6-6S4.7,2,8,2z
	 M8,4C7.4,4,7,4.5,7,5s0.4,1,1,1s1-0.4,1-1S8.6,4,8,4z M4.7,6C4.2,6.2,3.9,6.8,4,7.3c0.1,0.2,0.1,0.3,0.3,0.4l1.8,1.8
	C6.1,9.7,6,9.9,6,10c0,1.1,0.9,2,2,2s2-0.9,2-2S9.1,8,8,8C7.8,8,7.7,8.1,7.5,8.2L5.7,6.3C5.5,6.1,5.1,6,4.8,6H4.7L4.7,6z M11,6
	c-0.6,0-1,0.4-1,1s0.4,1,1,1s1-0.4,1-1S11.6,6,11,6z"/>
<path class="st0" d="M24,0c-4.4,0-8,3.6-8,8s3.6,8,8,8s8-3.6,8-8S28.4,0,24,0z M24,2c0.7,0,1.3,0.2,1.9,0.4
	c-0.4,0.4-0.9,0.8-0.8,1.1s1.4,0.3,1.4,1c0,0.5-0.8,0.7-0.3,1.3c0.7,0.7-1.3,2-1.3,2.9c-0.1,1.7,1.7,1.9,3.1,1.9
	c0.8,0,1.1,0.4,1,0.9C27.9,13,26.1,14,24.1,14c-0.8,0-1.5-0.2-2.1-0.4c0.4-0.9-0.6-2.6-1.5-3.2c-0.5-0.5-1.4-0.3-2-0.5
	c-0.3-0.5-0.5-1-0.5-1.6c0.1-0.1,0.2-0.2,0.3-0.2c0.4,0,0.9,0.8,1.2,0.7c0.4-0.1-1.5-2.6-0.6-3.1c0.4-0.2,1.2,0.8,0.9-0.3
	c-0.2-1,0.7-0.6,1.3-0.8c0.5-0.2,0.9-0.8,0.3-1.2C21.3,3.3,21.1,3.2,21,3C21.8,2.4,22.9,2.1,24,2L24,2z M28.6,4.2
	c0.4,0.4,0.6,0.9,0.9,1.4c0,0,0,0,0,0.1c-0.1,0.1-0.2,0.2-0.4,0.4c-0.6,0.6-0.6-0.4-0.9-0.6s-1.2,0-1.3-0.3
	C26.7,4.9,27.9,4.4,28.6,4.2z"/>
<path class="st0" d="M38,0c-0.6,0-1.1,0.2-1.4,0.6S36,1.5,36,2s0.4,1,0.6,1.4c0.1,0.1,0.1,0.3,0.1,0.6H32v12h4.6
	c0-0.2,0-0.4-0.1-0.6C36.4,15,36,14.6,36,14s0.2-1.1,0.6-1.4C37,12.2,37.5,12,38,12s1.1,0.2,1.4,0.6C39.8,13,40,13.5,40,14
	c0,0.6-0.4,1-0.6,1.4c-0.1,0.1-0.1,0.3-0.1,0.6H44v-4.6c0.2,0,0.4,0,0.6,0.1c0.5,0.2,0.9,0.6,1.4,0.6s1.1-0.2,1.4-0.6
	c0.4-0.4,0.6-0.9,0.6-1.4S47.8,9,47.4,8.7S46.6,8,46,8s-1,0.4-1.4,0.6c-0.1,0.1-0.3,0.1-0.6,0.1V4h-4.6c0-0.2,0-0.4,0.1-0.6
	C39.7,3,40,2.6,40,2s-0.2-1-0.5-1.4S38.6,0,38,0z"/>
<path class="st0" d="M55.1,0l-1,2.4c-0.2,0.1-0.4,0.2-0.6,0.3l-2.4-1l-1.4,1.4l1,2.4c-0.1,0.2-0.2,0.4-0.3,0.6l-2.4,1v2l2.4,1
	c0.1,0.2,0.2,0.4,0.3,0.6l-1,2.4l1.4,1.4l2.4-1c0.2,0.1,0.4,0.2,0.6,0.3l1,2.4h2l1-2.4c0.2-0.1,0.4-0.2,0.6-0.3l2.4,1l1.4-1.4
	l-1-2.4c0.1-0.2,0.2-0.4,0.3-0.6L64,9V7l-2.4-1c-0.1-0.2-0.2-0.4-0.3-0.6l1-2.4L61,1.7l-2.4,1c-0.2-0.1-0.4-0.2-0.6-0.3L57,0H55.1z
	 M56,5c1.7,0,3,1.3,3,3s-1.3,3-3,3s-3-1.3-3-3S54.4,5,56,5z"/>
<path class="st0" d="M75.1-0.1c-2.8,0-5,2.2-5,5c0,0.6,0.2,1.2,0.4,1.8l-5.8,5.7c-0.8,0.8-0.8,2.1,0,2.9c0.4,0.4,0.9,0.6,1.4,0.6
	s1-0.2,1.4-0.6l5.7-5.8c0.6,0.2,1.2,0.4,1.8,0.4c2.8,0,5-2.2,5-5c0-0.3,0-0.6-0.1-0.9L78,5.9h-4V2l2-2C75.7,0,75.4,0,75.1-0.1
	L75.1-0.1z M66.1,12.9c0.6,0,1,0.4,1,1s-0.4,1-1,1s-1-0.4-1-1S65.5,12.9,66.1,12.9z"/>
<path class="st0" d="M88,0l-0.4,0.2l-7,2.9L80,3.4V4c0,3.3,1.3,6.2,2.9,8.3c0.8,1.1,1.6,1.9,2.5,2.5c0.8,0.6,1.6,1.1,2.5,1.1
	s1.7-0.4,2.5-1.1c0.8-0.6,1.7-1.5,2.5-2.5c1.6-2.1,2.9-5,2.9-8.3V3.3L95.2,3l-7-2.9C88.4,0.2,88,0,88,0z M88,2.2v11.7
	c-0.1,0-0.7-0.1-1.3-0.6c-0.7-0.5-1.4-1.3-2.1-2.2c-1.3-1.7-2.3-4-2.4-6.5L88,2.2L88,2.2z"/>
<path class="st0" d="M104,0c-4.4,0-8,3.6-8,8s3.6,8,8,8s8-3.6,8-8S108.4,0,104,0z M104,2c1.3,0,2.5,0.4,3.5,1.1l-8.4,8.4
	C98.4,10.5,98,9.3,98,8C98,4.7,100.7,2,104,2z M108.9,4.5c0.7,1,1.1,2.2,1.1,3.5c0,3.3-2.7,6-6,6c-1.3,0-2.5-0.4-3.5-1.1L108.9,4.5z
	"/>
<g>
	<path class="st0" d="M117.7,13.7c-0.2,0.2-0.4,0.3-0.7,0.3c-0.2,0-0.5-0.2-0.7-0.3L112,9.4l1.4-1.4l3.6,3.6l9.6-9.7l1.4,1.4
		L117.7,13.7z"/>
</g>
<path class="st0" d="M136,0c-4.4,0-8,3.6-8,8s3.6,8,8,8s8-3.6,8-8S140.4,0,136,0z M139.7,10.3c0.4,0.4,0.4,1,0,1.4
	c-0.2,0.2-0.5,0.3-0.7,0.3s-0.5-0.1-0.7-0.3L136,9.4l-2.3,2.3c-0.2,0.2-0.5,0.3-0.7,0.3s-0.5-0.1-0.7-0.3c-0.4-0.4-0.4-1,0-1.4
	l2.3-2.3l-2.3-2.3c-0.4-0.4-0.4-1,0-1.4c0.4-0.4,1-0.4,1.4,0l2.3,2.3l2.3-2.3c0.4-0.4,1-0.4,1.4,0c0.4,0.4,0.4,1,0,1.4L137.4,8
	C137.4,8,139.7,10.3,139.7,10.3z"/>
<path class="st1" d="M159.5,10.5l-4.8-8c-0.6-1.1-1.6-1.7-2.7-1.7s-2,0.6-2.7,1.7l-4.8,8c-0.4,0.6-0.5,1.2-0.5,1.8
	c0,0.5,0.1,0.9,0.3,1.3c0.5,0.9,1.5,1.4,2.8,1.4h9.8c1.2,0,2.3-0.5,2.8-1.4c0.2-0.4,0.3-0.8,0.3-1.3C160,11.7,159.8,11.1,159.5,10.5
	z M152,4.9c0.7,0,1.3,0.6,1.3,1.3s-0.6,1.3-1.3,1.3c-0.7,0-1.3-0.6-1.3-1.3C150.7,5.4,151.3,4.9,152,4.9z M153.4,11.7
	c0,0-0.7,0.7-1.7,0.7h-0.1c-0.4,0-0.8-0.2-1-0.5c-0.3-0.4-0.3-0.9-0.1-1.5l0.3-1c0.2-0.6,0-0.6-0.1-0.7l-0.1,0
	c-0.2,0-0.5,0.1-0.6,0.2c-0.1,0-0.2,0-0.3-0.1c-0.1-0.1-0.1-0.2,0-0.3c0,0,0.7-0.8,1.8-0.7c0.4,0,0.8,0.2,1,0.5
	c0.3,0.4,0.3,0.9,0.1,1.5l-0.3,1c-0.2,0.6,0,0.6,0.1,0.7l0.1,0c0.2,0,0.5-0.1,0.6-0.2c0.1,0,0.2,0,0.3,0.1
	C153.4,11.6,153.4,11.7,153.4,11.7z"/>
</svg>
